<svg xmlns="http://www.w3.org/2000/svg" viewBox="0 0 480 480" width="480" height="480" font-family="system-ui, sans-serif">
<rect width="480" height="480" fill="#fff"/>
<path d="M 405.00 240.00 A 165 165 0 0 0 404.77 231.36 L 359.84 233.72 A 120 120 0 0 1 360.00 240.00 Z" fill="hsl(0,70%,55%)"/><path d="M 404.77 231.36 A 165 165 0 0 0 404.10 222.75 L 359.34 227.46 A 120 120 0 0 1 359.84 233.72 Z" fill="hsl(3,70%,55%)"/><path d="M 404.10 222.75 A 165 165 0 0 0 402.97 214.19 L 358.52 221.23 A 120 120 0 0 1 359.34 227.46 Z" fill="hsl(6,70%,55%)"/><path d="M 402.97 214.19 A 165 165 0 0 0 401.39 205.69 L 357.38 215.05 A 120 120 0 0 1 358.52 221.23 Z" fill="hsl(9,70%,55%)"/><path d="M 401.39 205.69 A 165 165 0 0 0 399.38 197.29 L 355.91 208.94 A 120 120 0 0 1 357.38 215.05 Z" fill="hsl(12,70%,55%)"/><path d="M 399.38 197.29 A 165 165 0 0 0 396.92 189.01 L 354.13 202.92 A 120 120 0 0 1 355.91 208.94 Z" fill="hsl(15,70%,55%)"/><path d="M 396.92 189.01 A 165 165 0 0 0 394.04 180.87 L 352.03 197.00 A 120 120 0 0 1 354.13 202.92 Z" fill="hsl(18,70%,55%)"/><path d="M 394.04 180.87 A 165 165 0 0 0 390.74 172.89 L 349.63 191.19 A 120 120 0 0 1 352.03 197.00 Z" fill="hsl(21,70%,55%)"/><path d="M 390.74 172.89 A 165 165 0 0 0 387.02 165.09 L 346.92 185.52 A 120 120 0 0 1 349.63 191.19 Z" fill="hsl(24,70%,55%)"/><path d="M 387.02 165.09 A 165 165 0 0 0 382.89 157.50 L 343.92 180.00 A 120 120 0 0 1 346.92 185.52 Z" fill="hsl(27,70%,55%)"/><path d="M 382.89 157.50 A 165 165 0 0 0 378.38 150.13 L 340.64 174.64 A 120 120 0 0 1 343.92 180.00 Z" fill="hsl(30,70%,55%)"/><path d="M 378.38 150.13 A 165 165 0 0 0 373.49 143.02 L 337.08 169.47 A 120 120 0 0 1 340.64 174.64 Z" fill="hsl(33,70%,55%)"/><path d="M 373.49 143.02 A 165 165 0 0 0 368.23 136.16 L 333.26 164.48 A 120 120 0 0 1 337.08 169.47 Z" fill="hsl(36,70%,55%)"/><path d="M 368.23 136.16 A 165 165 0 0 0 362.62 129.59 L 329.18 159.70 A 120 120 0 0 1 333.26 164.48 Z" fill="hsl(39,70%,55%)"/><path d="M 362.62 129.59 A 165 165 0 0 0 356.67 123.33 L 324.85 155.15 A 120 120 0 0 1 329.18 159.70 Z" fill="hsl(42,70%,55%)"/><path d="M 356.67 123.33 A 165 165 0 0 0 350.41 117.38 L 320.30 150.82 A 120 120 0 0 1 324.85 155.15 Z" fill="hsl(45,70%,55%)"/><path d="M 350.41 117.38 A 165 165 0 0 0 343.84 111.77 L 315.52 146.74 A 120 120 0 0 1 320.30 150.82 Z" fill="hsl(48,70%,55%)"/><path d="M 343.84 111.77 A 165 165 0 0 0 336.98 106.51 L 310.53 142.92 A 120 120 0 0 1 315.52 146.74 Z" fill="hsl(51,70%,55%)"/><path d="M 336.98 106.51 A 165 165 0 0 0 329.87 101.62 L 305.36 139.36 A 120 120 0 0 1 310.53 142.92 Z" fill="hsl(54,70%,55%)"/><path d="M 329.87 101.62 A 165 165 0 0 0 322.50 97.11 L 300.00 136.08 A 120 120 0 0 1 305.36 139.36 Z" fill="hsl(57,70%,55%)"/><path d="M 322.50 97.11 A 165 165 0 0 0 314.91 92.98 L 294.48 133.08 A 120 120 0 0 1 300.00 136.08 Z" fill="hsl(60,70%,55%)"/><path d="M 314.91 92.98 A 165 165 0 0 0 307.11 89.26 L 288.81 130.37 A 120 120 0 0 1 294.48 133.08 Z" fill="hsl(63,70%,55%)"/><path d="M 307.11 89.26 A 165 165 0 0 0 299.13 85.96 L 283.00 127.97 A 120 120 0 0 1 288.81 130.37 Z" fill="hsl(66,70%,55%)"/><path d="M 299.13 85.96 A 165 165 0 0 0 290.99 83.08 L 277.08 125.87 A 120 120 0 0 1 283.00 127.97 Z" fill="hsl(69,70%,55%)"/><path d="M 290.99 83.08 A 165 165 0 0 0 282.71 80.62 L 271.06 124.09 A 120 120 0 0 1 277.08 125.87 Z" fill="hsl(72,70%,55%)"/><path d="M 282.71 80.62 A 165 165 0 0 0 274.31 78.61 L 264.95 122.62 A 120 120 0 0 1 271.06 124.09 Z" fill="hsl(75,70%,55%)"/><path d="M 274.31 78.61 A 165 165 0 0 0 265.81 77.03 L 258.77 121.48 A 120 120 0 0 1 264.95 122.62 Z" fill="hsl(78,70%,55%)"/><path d="M 265.81 77.03 A 165 165 0 0 0 257.25 75.90 L 252.54 120.66 A 120 120 0 0 1 258.77 121.48 Z" fill="hsl(81,70%,55%)"/><path d="M 257.25 75.90 A 165 165 0 0 0 248.64 75.23 L 246.28 120.16 A 120 120 0 0 1 252.54 120.66 Z" fill="hsl(84,70%,55%)"/><path d="M 248.64 75.23 A 165 165 0 0 0 240.00 75.00 L 240.00 120.00 A 120 120 0 0 1 246.28 120.16 Z" fill="hsl(87,70%,55%)"/><path d="M 240.00 75.00 A 165 165 0 0 0 231.36 75.23 L 233.72 120.16 A 120 120 0 0 1 240.00 120.00 Z" fill="hsl(90,70%,55%)"/><path d="M 231.36 75.23 A 165 165 0 0 0 222.75 75.90 L 227.46 120.66 A 120 120 0 0 1 233.72 120.16 Z" fill="hsl(93,70%,55%)"/><path d="M 222.75 75.90 A 165 165 0 0 0 214.19 77.03 L 221.23 121.48 A 120 120 0 0 1 227.46 120.66 Z" fill="hsl(96,70%,55%)"/><path d="M 214.19 77.03 A 165 165 0 0 0 205.69 78.61 L 215.05 122.62 A 120 120 0 0 1 221.23 121.48 Z" fill="hsl(99,70%,55%)"/><path d="M 205.69 78.61 A 165 165 0 0 0 197.29 80.62 L 208.94 124.09 A 120 120 0 0 1 215.05 122.62 Z" fill="hsl(102,70%,55%)"/><path d="M 197.29 80.62 A 165 165 0 0 0 189.01 83.08 L 202.92 125.87 A 120 120 0 0 1 208.94 124.09 Z" fill="hsl(105,70%,55%)"/><path d="M 189.01 83.08 A 165 165 0 0 0 180.87 85.96 L 197.00 127.97 A 120 120 0 0 1 202.92 125.87 Z" fill="hsl(108,70%,55%)"/><path d="M 180.87 85.96 A 165 165 0 0 0 172.89 89.26 L 191.19 130.37 A 120 120 0 0 1 197.00 127.97 Z" fill="hsl(111,70%,55%)"/><path d="M 172.89 89.26 A 165 165 0 0 0 165.09 92.98 L 185.52 133.08 A 120 120 0 0 1 191.19 130.37 Z" fill="hsl(114,70%,55%)"/><path d="M 165.09 92.98 A 165 165 0 0 0 157.50 97.11 L 180.00 136.08 A 120 120 0 0 1 185.52 133.08 Z" fill="hsl(117,70%,55%)"/><path d="M 157.50 97.11 A 165 165 0 0 0 150.13 101.62 L 174.64 139.36 A 120 120 0 0 1 180.00 136.08 Z" fill="hsl(120,70%,55%)"/><path d="M 150.13 101.62 A 165 165 0 0 0 143.02 106.51 L 169.47 142.92 A 120 120 0 0 1 174.64 139.36 Z" fill="hsl(123,70%,55%)"/><path d="M 143.02 106.51 A 165 165 0 0 0 136.16 111.77 L 164.48 146.74 A 120 120 0 0 1 169.47 142.92 Z" fill="hsl(126,70%,55%)"/><path d="M 136.16 111.77 A 165 165 0 0 0 129.59 117.38 L 159.70 150.82 A 120 120 0 0 1 164.48 146.74 Z" fill="hsl(129,70%,55%)"/><path d="M 129.59 117.38 A 165 165 0 0 0 123.33 123.33 L 155.15 155.15 A 120 120 0 0 1 159.70 150.82 Z" fill="hsl(132,70%,55%)"/><path d="M 123.33 123.33 A 165 165 0 0 0 117.38 129.59 L 150.82 159.70 A 120 120 0 0 1 155.15 155.15 Z" fill="hsl(135,70%,55%)"/><path d="M 117.38 129.59 A 165 165 0 0 0 111.77 136.16 L 146.74 164.48 A 120 120 0 0 1 150.82 159.70 Z" fill="hsl(138,70%,55%)"/><path d="M 111.77 136.16 A 165 165 0 0 0 106.51 143.02 L 142.92 169.47 A 120 120 0 0 1 146.74 164.48 Z" fill="hsl(141,70%,55%)"/><path d="M 106.51 143.02 A 165 165 0 0 0 101.62 150.13 L 139.36 174.64 A 120 120 0 0 1 142.92 169.47 Z" fill="hsl(144,70%,55%)"/><path d="M 101.62 150.13 A 165 165 0 0 0 97.11 157.50 L 136.08 180.00 A 120 120 0 0 1 139.36 174.64 Z" fill="hsl(147,70%,55%)"/><path d="M 97.11 157.50 A 165 165 0 0 0 92.98 165.09 L 133.08 185.52 A 120 120 0 0 1 136.08 180.00 Z" fill="hsl(150,70%,55%)"/><path d="M 92.98 165.09 A 165 165 0 0 0 89.26 172.89 L 130.37 191.19 A 120 120 0 0 1 133.08 185.52 Z" fill="hsl(153,70%,55%)"/><path d="M 89.26 172.89 A 165 165 0 0 0 85.96 180.87 L 127.97 197.00 A 120 120 0 0 1 130.37 191.19 Z" fill="hsl(156,70%,55%)"/><path d="M 85.96 180.87 A 165 165 0 0 0 83.08 189.01 L 125.87 202.92 A 120 120 0 0 1 127.97 197.00 Z" fill="hsl(159,70%,55%)"/><path d="M 83.08 189.01 A 165 165 0 0 0 80.62 197.29 L 124.09 208.94 A 120 120 0 0 1 125.87 202.92 Z" fill="hsl(162,70%,55%)"/><path d="M 80.62 197.29 A 165 165 0 0 0 78.61 205.69 L 122.62 215.05 A 120 120 0 0 1 124.09 208.94 Z" fill="hsl(165,70%,55%)"/><path d="M 78.61 205.69 A 165 165 0 0 0 77.03 214.19 L 121.48 221.23 A 120 120 0 0 1 122.62 215.05 Z" fill="hsl(168,70%,55%)"/><path d="M 77.03 214.19 A 165 165 0 0 0 75.90 222.75 L 120.66 227.46 A 120 120 0 0 1 121.48 221.23 Z" fill="hsl(171,70%,55%)"/><path d="M 75.90 222.75 A 165 165 0 0 0 75.23 231.36 L 120.16 233.72 A 120 120 0 0 1 120.66 227.46 Z" fill="hsl(174,70%,55%)"/><path d="M 75.23 231.36 A 165 165 0 0 0 75.00 240.00 L 120.00 240.00 A 120 120 0 0 1 120.16 233.72 Z" fill="hsl(177,70%,55%)"/><path d="M 75.00 240.00 A 165 165 0 0 0 75.23 248.64 L 120.16 246.28 A 120 120 0 0 1 120.00 240.00 Z" fill="hsl(180,70%,55%)"/><path d="M 75.23 248.64 A 165 165 0 0 0 75.90 257.25 L 120.66 252.54 A 120 120 0 0 1 120.16 246.28 Z" fill="hsl(183,70%,55%)"/><path d="M 75.90 257.25 A 165 165 0 0 0 77.03 265.81 L 121.48 258.77 A 120 120 0 0 1 120.66 252.54 Z" fill="hsl(186,70%,55%)"/><path d="M 77.03 265.81 A 165 165 0 0 0 78.61 274.31 L 122.62 264.95 A 120 120 0 0 1 121.48 258.77 Z" fill="hsl(189,70%,55%)"/><path d="M 78.61 274.31 A 165 165 0 0 0 80.62 282.71 L 124.09 271.06 A 120 120 0 0 1 122.62 264.95 Z" fill="hsl(192,70%,55%)"/><path d="M 80.62 282.71 A 165 165 0 0 0 83.08 290.99 L 125.87 277.08 A 120 120 0 0 1 124.09 271.06 Z" fill="hsl(195,70%,55%)"/><path d="M 83.08 290.99 A 165 165 0 0 0 85.96 299.13 L 127.97 283.00 A 120 120 0 0 1 125.87 277.08 Z" fill="hsl(198,70%,55%)"/><path d="M 85.96 299.13 A 165 165 0 0 0 89.26 307.11 L 130.37 288.81 A 120 120 0 0 1 127.97 283.00 Z" fill="hsl(201,70%,55%)"/><path d="M 89.26 307.11 A 165 165 0 0 0 92.98 314.91 L 133.08 294.48 A 120 120 0 0 1 130.37 288.81 Z" fill="hsl(204,70%,55%)"/><path d="M 92.98 314.91 A 165 165 0 0 0 97.11 322.50 L 136.08 300.00 A 120 120 0 0 1 133.08 294.48 Z" fill="hsl(207,70%,55%)"/><path d="M 97.11 322.50 A 165 165 0 0 0 101.62 329.87 L 139.36 305.36 A 120 120 0 0 1 136.08 300.00 Z" fill="hsl(210,70%,55%)"/><path d="M 101.62 329.87 A 165 165 0 0 0 106.51 336.98 L 142.92 310.53 A 120 120 0 0 1 139.36 305.36 Z" fill="hsl(213,70%,55%)"/><path d="M 106.51 336.98 A 165 165 0 0 0 111.77 343.84 L 146.74 315.52 A 120 120 0 0 1 142.92 310.53 Z" fill="hsl(216,70%,55%)"/><path d="M 111.77 343.84 A 165 165 0 0 0 117.38 350.41 L 150.82 320.30 A 120 120 0 0 1 146.74 315.52 Z" fill="hsl(219,70%,55%)"/><path d="M 117.38 350.41 A 165 165 0 0 0 123.33 356.67 L 155.15 324.85 A 120 120 0 0 1 150.82 320.30 Z" fill="hsl(222,70%,55%)"/><path d="M 123.33 356.67 A 165 165 0 0 0 129.59 362.62 L 159.70 329.18 A 120 120 0 0 1 155.15 324.85 Z" fill="hsl(225,70%,55%)"/><path d="M 129.59 362.62 A 165 165 0 0 0 136.16 368.23 L 164.48 333.26 A 120 120 0 0 1 159.70 329.18 Z" fill="hsl(228,70%,55%)"/><path d="M 136.16 368.23 A 165 165 0 0 0 143.02 373.49 L 169.47 337.08 A 120 120 0 0 1 164.48 333.26 Z" fill="hsl(231,70%,55%)"/><path d="M 143.02 373.49 A 165 165 0 0 0 150.13 378.38 L 174.64 340.64 A 120 120 0 0 1 169.47 337.08 Z" fill="hsl(234,70%,55%)"/><path d="M 150.13 378.38 A 165 165 0 0 0 157.50 382.89 L 180.00 343.92 A 120 120 0 0 1 174.64 340.64 Z" fill="hsl(237,70%,55%)"/><path d="M 157.50 382.89 A 165 165 0 0 0 165.09 387.02 L 185.52 346.92 A 120 120 0 0 1 180.00 343.92 Z" fill="hsl(240,70%,55%)"/><path d="M 165.09 387.02 A 165 165 0 0 0 172.89 390.74 L 191.19 349.63 A 120 120 0 0 1 185.52 346.92 Z" fill="hsl(243,70%,55%)"/><path d="M 172.89 390.74 A 165 165 0 0 0 180.87 394.04 L 197.00 352.03 A 120 120 0 0 1 191.19 349.63 Z" fill="hsl(246,70%,55%)"/><path d="M 180.87 394.04 A 165 165 0 0 0 189.01 396.92 L 202.92 354.13 A 120 120 0 0 1 197.00 352.03 Z" fill="hsl(249,70%,55%)"/><path d="M 189.01 396.92 A 165 165 0 0 0 197.29 399.38 L 208.94 355.91 A 120 120 0 0 1 202.92 354.13 Z" fill="hsl(252,70%,55%)"/><path d="M 197.29 399.38 A 165 165 0 0 0 205.69 401.39 L 215.05 357.38 A 120 120 0 0 1 208.94 355.91 Z" fill="hsl(255,70%,55%)"/><path d="M 205.69 401.39 A 165 165 0 0 0 214.19 402.97 L 221.23 358.52 A 120 120 0 0 1 215.05 357.38 Z" fill="hsl(258,70%,55%)"/><path d="M 214.19 402.97 A 165 165 0 0 0 222.75 404.10 L 227.46 359.34 A 120 120 0 0 1 221.23 358.52 Z" fill="hsl(261,70%,55%)"/><path d="M 222.75 404.10 A 165 165 0 0 0 231.36 404.77 L 233.72 359.84 A 120 120 0 0 1 227.46 359.34 Z" fill="hsl(264,70%,55%)"/><path d="M 231.36 404.77 A 165 165 0 0 0 240.00 405.00 L 240.00 360.00 A 120 120 0 0 1 233.72 359.84 Z" fill="hsl(267,70%,55%)"/><path d="M 240.00 405.00 A 165 165 0 0 0 248.64 404.77 L 246.28 359.84 A 120 120 0 0 1 240.00 360.00 Z" fill="hsl(270,70%,55%)"/><path d="M 248.64 404.77 A 165 165 0 0 0 257.25 404.10 L 252.54 359.34 A 120 120 0 0 1 246.28 359.84 Z" fill="hsl(273,70%,55%)"/><path d="M 257.25 404.10 A 165 165 0 0 0 265.81 402.97 L 258.77 358.52 A 120 120 0 0 1 252.54 359.34 Z" fill="hsl(276,70%,55%)"/><path d="M 265.81 402.97 A 165 165 0 0 0 274.31 401.39 L 264.95 357.38 A 120 120 0 0 1 258.77 358.52 Z" fill="hsl(279,70%,55%)"/><path d="M 274.31 401.39 A 165 165 0 0 0 282.71 399.38 L 271.06 355.91 A 120 120 0 0 1 264.95 357.38 Z" fill="hsl(282,70%,55%)"/><path d="M 282.71 399.38 A 165 165 0 0 0 290.99 396.92 L 277.08 354.13 A 120 120 0 0 1 271.06 355.91 Z" fill="hsl(285,70%,55%)"/><path d="M 290.99 396.92 A 165 165 0 0 0 299.13 394.04 L 283.00 352.03 A 120 120 0 0 1 277.08 354.13 Z" fill="hsl(288,70%,55%)"/><path d="M 299.13 394.04 A 165 165 0 0 0 307.11 390.74 L 288.81 349.63 A 120 120 0 0 1 283.00 352.03 Z" fill="hsl(291,70%,55%)"/><path d="M 307.11 390.74 A 165 165 0 0 0 314.91 387.02 L 294.48 346.92 A 120 120 0 0 1 288.81 349.63 Z" fill="hsl(294,70%,55%)"/><path d="M 314.91 387.02 A 165 165 0 0 0 322.50 382.89 L 300.00 343.92 A 120 120 0 0 1 294.48 346.92 Z" fill="hsl(297,70%,55%)"/><path d="M 322.50 382.89 A 165 165 0 0 0 329.87 378.38 L 305.36 340.64 A 120 120 0 0 1 300.00 343.92 Z" fill="hsl(300,70%,55%)"/><path d="M 329.87 378.38 A 165 165 0 0 0 336.98 373.49 L 310.53 337.08 A 120 120 0 0 1 305.36 340.64 Z" fill="hsl(303,70%,55%)"/><path d="M 336.98 373.49 A 165 165 0 0 0 343.84 368.23 L 315.52 333.26 A 120 120 0 0 1 310.53 337.08 Z" fill="hsl(306,70%,55%)"/><path d="M 343.84 368.23 A 165 165 0 0 0 350.41 362.62 L 320.30 329.18 A 120 120 0 0 1 315.52 333.26 Z" fill="hsl(309,70%,55%)"/><path d="M 350.41 362.62 A 165 165 0 0 0 356.67 356.67 L 324.85 324.85 A 120 120 0 0 1 320.30 329.18 Z" fill="hsl(312,70%,55%)"/><path d="M 356.67 356.67 A 165 165 0 0 0 362.62 350.41 L 329.18 320.30 A 120 120 0 0 1 324.85 324.85 Z" fill="hsl(315,70%,55%)"/><path d="M 362.62 350.41 A 165 165 0 0 0 368.23 343.84 L 333.26 315.52 A 120 120 0 0 1 329.18 320.30 Z" fill="hsl(318,70%,55%)"/><path d="M 368.23 343.84 A 165 165 0 0 0 373.49 336.98 L 337.08 310.53 A 120 120 0 0 1 333.26 315.52 Z" fill="hsl(321,70%,55%)"/><path d="M 373.49 336.98 A 165 165 0 0 0 378.38 329.87 L 340.64 305.36 A 120 120 0 0 1 337.08 310.53 Z" fill="hsl(324,70%,55%)"/><path d="M 378.38 329.87 A 165 165 0 0 0 382.89 322.50 L 343.92 300.00 A 120 120 0 0 1 340.64 305.36 Z" fill="hsl(327,70%,55%)"/><path d="M 382.89 322.50 A 165 165 0 0 0 387.02 314.91 L 346.92 294.48 A 120 120 0 0 1 343.92 300.00 Z" fill="hsl(330,70%,55%)"/><path d="M 387.02 314.91 A 165 165 0 0 0 390.74 307.11 L 349.63 288.81 A 120 120 0 0 1 346.92 294.48 Z" fill="hsl(333,70%,55%)"/><path d="M 390.74 307.11 A 165 165 0 0 0 394.04 299.13 L 352.03 283.00 A 120 120 0 0 1 349.63 288.81 Z" fill="hsl(336,70%,55%)"/><path d="M 394.04 299.13 A 165 165 0 0 0 396.92 290.99 L 354.13 277.08 A 120 120 0 0 1 352.03 283.00 Z" fill="hsl(339,70%,55%)"/><path d="M 396.92 290.99 A 165 165 0 0 0 399.38 282.71 L 355.91 271.06 A 120 120 0 0 1 354.13 277.08 Z" fill="hsl(342,70%,55%)"/><path d="M 399.38 282.71 A 165 165 0 0 0 401.39 274.31 L 357.38 264.95 A 120 120 0 0 1 355.91 271.06 Z" fill="hsl(345,70%,55%)"/><path d="M 401.39 274.31 A 165 165 0 0 0 402.97 265.81 L 358.52 258.77 A 120 120 0 0 1 357.38 264.95 Z" fill="hsl(348,70%,55%)"/><path d="M 402.97 265.81 A 165 165 0 0 0 404.10 257.25 L 359.34 252.54 A 120 120 0 0 1 358.52 258.77 Z" fill="hsl(351,70%,55%)"/><path d="M 404.10 257.25 A 165 165 0 0 0 404.77 248.64 L 359.84 246.28 A 120 120 0 0 1 359.34 252.54 Z" fill="hsl(354,70%,55%)"/><path d="M 404.77 248.64 A 165 165 0 0 0 405.00 240.00 L 360.00 240.00 A 120 120 0 0 1 359.84 246.28 Z" fill="hsl(357,70%,55%)"/>
<text x="423.0" y="234.0" font-size="13" fill="#3f3f46" text-anchor="middle" dominant-baseline="middle">0°</text><text x="423.0" y="249.0" font-size="12" fill="#71717a" text-anchor="middle" dominant-baseline="middle">赤</text><text x="398.5" y="148.5" font-size="13" fill="#3f3f46" text-anchor="middle" dominant-baseline="middle">30°</text><text x="331.5" y="75.5" font-size="13" fill="#3f3f46" text-anchor="middle" dominant-baseline="middle">60°</text><text x="331.5" y="90.5" font-size="12" fill="#71717a" text-anchor="middle" dominant-baseline="middle">黄</text><text x="240.0" y="57.0" font-size="13" fill="#3f3f46" text-anchor="middle" dominant-baseline="middle">90°</text><text x="148.5" y="75.5" font-size="13" fill="#3f3f46" text-anchor="middle" dominant-baseline="middle">120°</text><text x="148.5" y="90.5" font-size="12" fill="#71717a" text-anchor="middle" dominant-baseline="middle">緑</text><text x="81.5" y="148.5" font-size="13" fill="#3f3f46" text-anchor="middle" dominant-baseline="middle">150°</text><text x="57.0" y="234.0" font-size="13" fill="#3f3f46" text-anchor="middle" dominant-baseline="middle">180°</text><text x="57.0" y="249.0" font-size="12" fill="#71717a" text-anchor="middle" dominant-baseline="middle">シアン</text><text x="81.5" y="331.5" font-size="13" fill="#3f3f46" text-anchor="middle" dominant-baseline="middle">210°</text><text x="148.5" y="392.5" font-size="13" fill="#3f3f46" text-anchor="middle" dominant-baseline="middle">240°</text><text x="148.5" y="407.5" font-size="12" fill="#71717a" text-anchor="middle" dominant-baseline="middle">青</text><text x="240.0" y="423.0" font-size="13" fill="#3f3f46" text-anchor="middle" dominant-baseline="middle">270°</text><text x="331.5" y="392.5" font-size="13" fill="#3f3f46" text-anchor="middle" dominant-baseline="middle">300°</text><text x="331.5" y="407.5" font-size="12" fill="#71717a" text-anchor="middle" dominant-baseline="middle">マゼンタ</text><text x="398.5" y="331.5" font-size="13" fill="#3f3f46" text-anchor="middle" dominant-baseline="middle">330°</text>
<circle cx="349.2" cy="331.6" r="12" fill="hsl(320,90%,92%)" stroke="#111" stroke-width="1.8"/><text x="349.2" y="332.6" font-size="13" font-weight="bold" fill="hsl(320,45%,28%)" text-anchor="middle" dominant-baseline="middle">1</text><circle cx="331.6" cy="130.8" r="12" fill="hsl(50,90%,92%)" stroke="#111" stroke-width="1.8"/><text x="331.6" y="131.8" font-size="13" font-weight="bold" fill="hsl(50,45%,28%)" text-anchor="middle" dominant-baseline="middle">2</text><circle cx="148.4" cy="349.2" r="12" fill="hsl(230,90%,92%)" stroke="#111" stroke-width="1.8"/><text x="148.4" y="350.2" font-size="13" font-weight="bold" fill="hsl(230,45%,28%)" text-anchor="middle" dominant-baseline="middle">3</text><circle cx="227.6" cy="98.0" r="12" fill="hsl(95,90%,92%)" stroke="#111" stroke-width="1.8"/><text x="227.6" y="99.0" font-size="13" font-weight="bold" fill="hsl(95,45%,28%)" text-anchor="middle" dominant-baseline="middle">4</text><text x="288.4" y="449.5" font-size="12" fill="#3f3f46" text-anchor="middle">メンバー色 ①②③④</text><text x="288.4" y="464.5" font-size="11" fill="#71717a" text-anchor="middle">＝挿入順・空いた隙間へ</text>

  <circle cx="130.8" cy="148.4" r="12" fill="#fff" stroke="#111" stroke-width="2.5"/>
  <text x="130.8" y="149.4" font-size="14" text-anchor="middle" dominant-baseline="middle">★</text>
  <line x1="113.6" y1="133.9" x2="73.8" y2="100.5" stroke="#111" stroke-width="1"/>
  <text x="73.8" y="94.5" font-size="13" font-weight="bold" fill="#111" text-anchor="middle">確定 / 全員参加</text>
  <text x="73.8" y="110.5" font-size="12" fill="#111" text-anchor="middle">140° に固定予約</text>
<text x="240" y="236" font-size="13" fill="#52525b" text-anchor="middle">色相環</text>
<text x="240" y="254" font-size="11" fill="#a1a1aa" text-anchor="middle">HSL hue 0–359°</text>
</svg>